<?xml version="1.0" encoding="UTF-8" standalone="no"?>
<svg
   id="Layer_1"
   data-name="Layer 1"
   viewBox="0 0 100 100"
   version="1.1"
   sodipodi:docname="icon.svg"
   width="100"
   height="100"
   inkscape:version="1.2.2 (b0a8486541, 2022-12-01)"
   xmlns:inkscape="http://www.inkscape.org/namespaces/inkscape"
   xmlns:sodipodi="http://sodipodi.sourceforge.net/DTD/sodipodi-0.dtd"
   xmlns="http://www.w3.org/2000/svg"
   xmlns:svg="http://www.w3.org/2000/svg"
   xmlns:rdf="http://www.w3.org/1999/02/22-rdf-syntax-ns#"
   xmlns:cc="http://creativecommons.org/ns#"
   xmlns:dc="http://purl.org/dc/elements/1.1/">
  <title
     id="title139">git ubuntu</title>
  <sodipodi:namedview
     id="namedview169"
     pagecolor="#505050"
     bordercolor="#eeeeee"
     borderopacity="1"
     inkscape:showpageshadow="0"
     inkscape:pageopacity="0"
     inkscape:pagecheckerboard="0"
     inkscape:deskcolor="#505050"
     showgrid="false"
     inkscape:zoom="6.1948506"
     inkscape:cx="108.15434"
     inkscape:cy="51.978655"
     inkscape:window-width="2560"
     inkscape:window-height="1298"
     inkscape:window-x="3000"
     inkscape:window-y="223"
     inkscape:window-maximized="1"
     inkscape:current-layer="Layer_1" />
  <defs
     id="defs140">
    <style
       id="style138">.cls-1{fill:#1d1d1b;}.cls-2{fill:#e9500e;}.cls-3{fill:#fff;}</style>
  </defs>
  <ellipse
     class="cls-3"
     cx="11.282997"
     cy="50.447605"
     id="circle156"
     transform="matrix(0.99817853,-0.06032933,0.05814195,0.99830833,0,0)"
     style="fill:#e9500e;fill-opacity:1;stroke-width:0.583621"
     rx="14.196507"
     ry="14.460149" />
  <ellipse
     class="cls-3"
     cx="70.406174"
     cy="18.740334"
     id="circle158"
     transform="matrix(0.99817853,-0.06032933,0.05814195,0.99830833,0,0)"
     style="fill:#e9500e;fill-opacity:1;stroke-width:0.583621"
     rx="14.196507"
     ry="14.460149" />
  <path
     class="cls-3"
     d="M 48.319008,84.901603 A 34.571968,35.218578 0 0 1 23.719558,68.039157 20.435033,20.817236 0 0 1 11.691869,70.288579 46.213407,47.07775 0 0 0 46.556504,96.637604 46.770076,47.644831 0 0 0 56.680456,97.084301 20.311996,20.691897 0 0 1 51.82845,85.265755 c -1.174794,-0.06154 -2.351746,-0.184026 -3.509442,-0.364152 z"
     id="path160"
     style="fill:#e9500e;fill-opacity:1;stroke-width:0.583621" />
  <ellipse
     class="cls-3"
     cx="67.207764"
     cy="87.741959"
     id="circle162"
     transform="matrix(0.99817853,-0.06032933,0.05814195,0.99830833,0,0)"
     style="fill:#e9500e;fill-opacity:1;stroke-width:0.583621"
     rx="14.196507"
     ry="14.460149" />
  <path
     class="cls-3"
     d="m 91.59714,77.044827 a 46.443262,47.311904 0 0 0 -0.904063,-55.554304 20.460556,20.843236 0 0 1 -7.414971,9.988711 34.802211,35.453127 0 0 1 0.911708,35.220569 20.356722,20.73746 0 0 1 7.407326,10.345024 z"
     id="path164"
     style="fill:#e9500e;fill-opacity:1;stroke-width:0.583621" />
  <path
     class="cls-3"
     d="m 11.896516,29.045486 q 0.537704,-0.06276 1.077737,-0.09511 A 20.486849,20.870021 0 0 1 23.902365,31.418385 34.621679,35.269218 0 0 1 50.847782,14.574865 20.583478,20.968457 0 0 1 54.464966,2.607778 46.661177,47.533895 0 0 0 11.896515,29.045474 Z"
     id="path166"
     style="fill:#e9500e;fill-opacity:1;stroke-width:0.583621" />
  <rect
     style="fill:#e9500e;fill-opacity:1;stroke-width:0.616618"
     id="rect2111"
     width="11.119695"
     height="59.942253"
     x="66.318237"
     y="21.429844" />
  <rect
     style="fill:#e9500e;fill-opacity:1;stroke-width:0.616662"
     id="rect2111-5"
     width="11.267466"
     height="59.164513"
     x="45.017815"
     y="-48.065285"
     transform="matrix(0.53272356,0.84628932,-0.8371987,0.54689884,0,0)" />
  <metadata
     id="metadata137">
    <rdf:RDF>
      <cc:Work
         rdf:about="">
        <dc:title>git ubuntu</dc:title>
        <dc:creator>
          <cc:Agent>
            <dc:title>Lena Voytek</dc:title>
          </cc:Agent>
        </dc:creator>
      </cc:Work>
    </rdf:RDF>
  </metadata>
</svg>
